<svg xmlns="http://www.w3.org/2000/svg" viewBox="0 0 97.01 90.53"><defs><style>.cls-1{fill:none;}.cls-1,.cls-2{stroke:#ba4035;stroke-miterlimit:10;stroke-width:2px;}.cls-2{fill:#f1582a;}</style></defs><title>sprite_1</title><g id="Layer_2" data-name="Layer 2"><g id="Main_Artwork" data-name="Main Artwork"><path class="cls-1" d="M17.7,72.67V23.24a7.43,7.43,0,0,1,7.43-7.43H71.82a7.43,7.43,0,0,1,7.43,7.43V72.67"/><line class="cls-1" x1="71.82" y1="80.09" x2="25.13" y2="80.09"/><circle class="cls-2" cx="48.48" cy="10.44" r="9.44"/><path class="cls-2" d="M34.67,34.51a3,3,0,0,1-3-3V27.22c0-4.33,2.16-7.28,5-7.28h1a13.37,13.37,0,0,0,21.46,0h1c2.89,0,5,2.68,5,7.28v4.33a3,3,0,0,1-3,3Z"/><circle class="cls-2" cx="79.25" cy="65.45" r="9.44"/><path class="cls-2" d="M65.45,89.53a3,3,0,0,1-3-3V82.24c0-4.33,2.16-7.28,5-7.28h1A13.37,13.37,0,0,0,90,75h1c2.89,0,5,2.68,5,7.28v4.33a3,3,0,0,1-3,3Z"/><circle class="cls-2" cx="17.76" cy="65.45" r="9.44"/><path class="cls-2" d="M4,89.53a3,3,0,0,1-3-3V82.24C1,77.91,3.16,75,6,75H7a13.37,13.37,0,0,0,21.46,0h1c2.89,0,5,2.68,5,7.28v4.33a3,3,0,0,1-3,3Z"/><polyline class="cls-1" points="65.39 64.26 48.63 52.85 31.72 64.26"/><line class="cls-1" x1="48.63" y1="52.85" x2="48.63" y2="37.87"/></g></g></svg>