<?xml version="1.0" encoding="utf-8"?>
<!-- Generator: Adobe Illustrator 20.0.0, SVG Export Plug-In . SVG Version: 6.00 Build 0)  -->
<svg version="1.1" id="ARTWORK" xmlns="http://www.w3.org/2000/svg" xmlns:xlink="http://www.w3.org/1999/xlink" x="0px" y="0px"
	 viewBox="0 0 428.9 466.9" style="enable-background:new 0 0 428.9 466.9;" xml:space="preserve">
<style type="text/css">
	.st0{fill:#002856;}
	.st1{fill:#FFFFFF;}
	.st2{fill:#EB0029;}
	.st3{opacity:0.5;fill:#808285;enable-background:new    ;}
	.st4{opacity:0.75;fill:#808285;enable-background:new    ;}
</style>
<path class="st0" d="M214.7,0c71.4,23.8,142.7,47.6,214.1,71.4c0,34.1,0,68.2,0,102.3c0,23.1,1.2,47-3,66.3
	c-17.6,80.5-59.8,135.3-116.6,176.2c-22,15.8-44.8,29.4-71.4,41c-4.2,1.8-19.7,10.7-24.6,9.6c-23.9-5.3-56.7-26.3-75.9-38.5
	C71.8,386.6,22.6,328.2,3.2,239.9c-4.2-19-3-42.6-3-65.3c0-34.4,0-68.9,0-103.3C71.7,47.6,143.2,23.8,214.7,0z"/>
<g>
	<g>
		<path class="st1" d="M152.2,264.3l-18.6,2.7c-2.2,0.3-4.7,0.7-6.6,1.1c-1.2,0.3-2,0.4-2.3,0.4c-1.7,0.2-2.7-0.5-2.7-1.9
			c0-1.6,0.7-2.3,3.9-3.2c2.7-0.9,3.5-2.4,3.6-7.1v-3.7v-37.2c0-7.2-0.7-8.9-3.8-8.8c-0.4,0-0.8,0-1.3,0.1c-0.6,0-1,0.1-1.2,0.1
			c-1.3,0-2.2-0.9-2.2-2.2c0-1.7,0.8-2.2,5.7-3.4c6.2-1.4,15.9-2.6,22.9-2.6c21.9,0,36.6,12.1,36.6,29.7
			C186.2,246.4,171.9,261.6,152.2,264.3 M150.4,203.4c-2.7,0-4.8,0.5-5.5,1.4c-0.8,1-1,3.3-1,9v35.3c0,7.2,0.2,8.8,1.8,10.6
			c1.1,1.3,2.8,1.7,5.2,1.4c11.1-1.4,19.5-14.5,19.5-30.5C170.3,214.3,162.3,203.3,150.4,203.4"/>
		<path class="st1" d="M313.9,267.6c0,1.8-0.8,2.5-2.5,2.2c-0.3-0.1-6.6-1.6-12.5-3c-2.4-0.5-9.2-1.2-10.7-1.5
			c-1.9-0.3-4.3-0.5-4.3-2.1c0-1.3,0.8-2.2,1.8-2.2l2.7,0.1c0.9,0.1,1.7-0.2,2.3-0.8c0.9-1,1.2-1.4,1.2-6.6V253l-0.1-7.5l-0.2-11.3
			c-0.1-6.6-0.1-10.4-0.2-11.7c-0.1-1.5-0.1-2.7-0.1-3.6c0-0.8-0.2-1.5-0.4-1.5c-0.3,0-0.6,0.7-1,2.3c-0.5,1.3-1.4,4.3-2.9,8.6
			c-3.7,10.4-9,26.4-11.4,33.8c-0.3,1.2-0.7,2-0.9,2.9c-0.5,1.4-0.9,1.7-2.2,1.5c-1.7-0.3-2.4-1.4-3.6-5.2l-2.2-6.4l-2.8-8.4
			l-9.6-27.4c-0.7-1.8-0.9-2.2-1.2-2.3c-0.1,0-0.1,0-0.1,0.1c-0.1,0-0.2,0.2-0.2,0.5c0,0.2,0,0.6-0.1,1l-0.1,2.1l-0.5,13.6L252,240
			l-0.1,3.2v0.7c0,4.2,0.2,7.7,0.4,9.3c0.2,1.3,1,1.7,1.5,2.3c0.7,0.7,1.2,0.9,4.7,1.8c1.8,0.4,2.6,1.2,2.6,2.7
			c0,1.6-0.8,2.1-2.5,1.8c-0.7-0.1-1.3-0.2-2.2-0.5c0,0-4.8-0.3-6.5-0.4c-2.4-0.2-4.2-0.5-6.2-0.6c-0.9-0.1-1.6-0.1-2.1-0.2
			c-1.2-0.2-2-1.1-2-2.2c0-0.5,0.2-0.9,0.3-1.1c0.3-0.3,0.7-0.5,1.2-0.6c0.2,0,0.9,0,2.2-0.2c3-0.2,3.8-2.5,4-9.1
			c0-1.6,0.1-3.9,0.2-5.8l1.2-29l0.1-3c0-1.2-0.1-2.2-0.3-2.6c-0.4-0.9-1.8-1.5-4-1.8c-2.6-0.2-3.5-0.8-3.5-2.2
			c0-1.4,1.1-2.3,2.6-2.3c0.5,0,1.2,0.1,2,0.2c2.4,0.2,5.7,0.3,8.4,0.3c2.6,0,4.8,0,5.9-0.2c0.7-0.1,1.1-0.1,1.6-0.1
			c1.2,0,1.5,0.3,2.1,2l12.1,35.5l0.8,2.3c0.4,1.4,0.7,1.8,0.9,1.8s0.3-0.4,0.6-1c0.2-0.9,0.7-2.1,1.3-3.6c0.5-1.4,1.4-4,2.7-7.7
			c2.3-6.6,4-11.4,4.9-14.5l2.5-8.2c0.4-1.3,0.9-2.7,1.4-4.2c0.7-2.1,1.1-2.4,2.6-2.4c0.7,0,1.7,0,3.2,0.1c0.7,0.1,1.7,0.1,2.8,0.2
			h3.4c1.6,0,3,0,4.2-0.2c1.9-0.2,2.7-0.3,2.9-0.3c1.6,0,2.4,1,2.4,2.8s-0.9,2.5-3.1,2.9c-2.4,0.3-2.9,0.5-3.4,1.5
			c-0.6,1-0.7,2.1-0.7,6.2v0.4l0.1,9c0,3.3,0.1,8.8,0.2,16.5c0.4,15.6,0.5,14.8,0.8,19.2c0.3,5.1,1.3,5.2,4.5,5.7
			c0,0,1.3,0.2,2.3,1.3C314,266.4,313.9,267.6,313.9,267.6"/>
		<path class="st1" d="M147.5,192.8h-1.7l-5.9-0.4c-1.9-0.1-3.8-0.2-5.6-0.2c-2.6,0-5.8,0.1-9.7,0.4c-1.2,0.1-2.6,0.2-3,0.2
			c-1.6,0-2.4-0.7-2.4-2c0-1,0.4-1.6,1.2-2c0.5-0.2,0.8-0.3,2.5-0.6c2.3-0.4,3.2-1.1,3.2-2.2c0-0.5-0.2-1.3-0.6-2.4l-1.7-4.9
			l-2.3-5.8c-0.3-0.9-0.5-1.4-0.7-1.7c-0.3-0.3-0.6-0.6-1-0.6h-1.2h-13.8c-2,0-2.4,0.4-3.1,2.5l-0.9,3.3c-0.7,2.6-1.2,5.3-1.2,6.7
			c0,2.9,1.6,4.4,5.4,4.9c3,0.4,3.8,0.9,3.8,2.5s-1.1,2.3-3.1,2.3c-0.4,0-1.4-0.1-2.3-0.1c-3.8-0.4-4.4-0.5-6.6-0.5
			c-2.1,0-3,0.1-6.5,0.5c-1,0.1-1.7,0.1-2.4,0.1c-1.7,0-2.6-0.9-2.6-2.3c0-1.3,0.8-2,2.7-2.4c1.8-0.3,2.7-0.7,3.4-1.5
			c1.2-1.2,1.8-2.2,4.3-9.1l4.4-11.9l6.8-18.9l0.8-2.8c2.3-5.5-1.8-4.5-1.6-5.7c0.4-1.7,2.3-1.2,7.4-5.9c3.4-3.1,5.4-6.8,6.6-6.8
			c1.8,0,0.6,2.9,1.5,5.5c1.2,3.3,2.4,6.2,4.6,11.8l6.6,17.1l5.1,13.7l3.3,8c2.4,5.7,3.1,6.6,6,6.6c2.3,0,3.1,0.6,3.1,2.2
			C150.3,192.3,149.7,192.8,147.5,192.8 M118.5,164.2c-0.2-0.6-0.3-1-0.4-1.2l-5.8-14.9c-0.3-0.8-0.7-1.4-0.9-1.4
			c-0.3,0-0.7,1-1.3,2.4c-0.3,1-1,2.6-1.8,4.9c-1,2.8-1.8,4.9-2.3,6.3s-0.9,2.2-1,2.6c-0.2,0.6-0.3,1.1-0.3,1.6
			c0,0.9,0.5,1.2,1.9,1.2h10.2c1.5,0,1.8-0.1,1.8-0.8C118.6,164.6,118.5,164.5,118.5,164.2"/>
		<path class="st1" d="M121.9,269.3l-8.5,2c-2.2,0.5-5.9,1.2-16.7,4.7c-1.4,0.4-2.9,1.1-3.3,1.2c-1.8,0.5-2.7-0.1-2.7-1.8
			c0-1.2,0.6-2.2,1.5-2.9c0.6-0.4,0.9-0.6,2.9-1.5c2.6-1.2,3.7-2.3,3.7-3.8c0-0.6-0.1-1.3-0.5-2.6c0,0-4-11.3-4.2-11.6
			c-0.3-0.3-0.7-0.5-1.2-0.4l-1.4,0.4L76,257.4c-2.3,0.6-2.8,1.3-3.5,4.1l-1.1,4.4c-0.9,3.5-1.9,5.3-2,7c-0.1,3.6,1.8,5.2,6,4.7
			c3.3-0.5,4.2-0.1,4.1,1.9c-0.1,1.9-1.3,3.2-3.5,3.9c-0.5,0.1-2.2,0.6-3.2,0.9c-6.6,2.4-7.8,2.9-11.8,4.6c-1.1,0.4-4.9,2.4-5.7,2.6
			c-1.9,0.5-2.9-0.2-2.8-2c0-1.7,1.5-2.8,3.6-4c2-1.2,2.1-1.3,2.9-2.5c1.4-1.8,3-6.4,6.2-15.7l5.5-16.2l9.5-29.4
			c2.8-7.5-2.5-6.5-2.2-8.1c0.5-2.2,3.8-1.8,9.1-7c4.5-4.5,6.1-7.5,7.4-7.8c2.1-0.6,1,3.6,1.9,6.5c2.2,6.9,10.9,30.1,10.9,30.1
			l5.4,13.7l3.4,8.9c2.4,6.3,3.2,6.7,6.6,6.4c2.9-0.2,4.1,0,4,2C126.6,268.6,124.4,268.6,121.9,269.3 M91.2,245.8
			c-0.2-0.7-0.3-1.1-0.4-1.3L85,225.4c-0.4-0.9-0.7-1.5-0.9-1.4c-0.3,0.1-0.8,1.4-1.6,3.4c-0.4,1.3-1.2,3.6-2.3,6.6
			c-1.3,3.8-2.3,6.6-2.8,8.6c-0.6,1.8-1.1,5.4-1.3,6c-0.2,0.8-0.4,1.4-0.5,2c0,1.1,0.5,1.3,2.1,0.8l11.6-3.3
			c1.7-0.5,2.1-0.7,2.1-1.5C91.4,246.4,91.3,246.2,91.2,245.8"/>
		<path class="st1" d="M221.4,193c-0.4,0-1.7-0.1-3.4-0.2c-2.9-0.3-6.9-0.4-10.2-0.4c-3.4,0-5.2,0.1-10.3,0.5
			c-0.9,0.1-1.7,0.1-2.4,0.1c-2,0-3-0.7-3-2.2c0-1.2,0.9-2.3,2-2.3l2.9-0.3c1-0.1,1.9-0.5,2.5-1.1c1-1.1,1.2-2.2,1.2-7v-0.7l-0.1-10
			l-0.2-10.4c-0.1-6.1-0.1-9.6-0.2-10.8c-0.1-1.4-0.1-2.4-0.1-3.3c0-0.8-0.2-1.4-0.4-1.4c-0.3,0-0.6,0.7-1.1,2.2
			c-0.5,1.3-1.5,4-3.1,8.1c-4,10.1-9.6,25.9-12.2,33.3c-0.4,1.2-0.7,2.1-1,2.9c-0.5,1.5-1,1.8-2.3,1.8c-1.8,0-2.6-1-3.8-4.5l-2.3-6
			l-3-7.9l-10.2-26.8c-0.7-1.8-1-2.3-1.3-2.3c-0.1,0-0.1,0-0.1,0.1c-0.1,0-0.2,0.2-0.2,0.5c0,0.2,0,0.6-0.1,1.1l-0.1,2.2l-0.5,13.9
			l-0.1,6.1l-0.1,6.9v0.7c0,4.3,0.2,7.2,0.4,8.9c0.3,1.3,0.8,2.3,1.4,2.8c0.8,0.6,1.3,0.7,5,1c1.9,0.1,2.7,0.8,2.7,2.2
			c0,1.6-0.8,2.2-2.6,2.2c-0.7,0-1.4,0-2.3-0.1l-3.3-0.4c-0.7,0-1.6-0.1-2.7-0.1c-2.5,0-5.2,0.2-7.3,0.4c-1,0.1-1.7,0.2-2.3,0.2
			c-1.3,0-2.1-0.8-2.1-2c0-0.5,0.2-1,0.4-1.3c0.3-0.4,0.7-0.7,1.2-0.9c0.2,0,1-0.2,2.4-0.6c3.2-0.8,4.1-2.5,4.2-9.5
			c0-1.7,0.1-3.4,0.2-5.4l1.3-33.8l0.1-3.1c0-1.3-0.1-2.3-0.3-2.7c-0.4-1-1.9-1.6-4.2-1.8c-2.7-0.2-3.7-0.8-3.7-2.3s1.1-2.4,2.8-2.4
			c0.5,0,1.2,0.1,2.1,0.2c2.6,0.2,6.1,0.3,8.9,0.3c2.8,0,5.1,0,6.3-0.2c0.7-0.1,1.2-0.1,1.7-0.1c1.2,0,1.6,0.3,2.2,2l12.9,34.1
			l0.9,2.2c0.4,1.3,0.7,1.7,1,1.7c0.2,0,0.4-0.4,0.6-1c0.3-0.9,0.8-2.1,1.4-3.5c0.5-1.4,1.5-3.9,2.9-7.6c2.5-6.4,4.2-11,5.2-13.9
			l2.6-7.7c0.4-1.2,1-2.5,1.5-3.9c0.8-2,1.1-2.3,2.7-2.3c0.7,0,1.8,0,3.4,0.1c0.7,0.1,1.8,0.1,3,0.2h3.6c1.7,0,3.2,0,4.5-0.2
			c2-0.2,2.8-0.3,3.1-0.3c1.7,0,2.6,0.9,2.6,2.4c0,1.6-1,2.3-3.4,2.5c-2.6,0.3-3.1,0.5-3.6,1.4c-0.6,0.9-0.8,1.9-0.8,5.6v0.4l0.1,8
			c0,2.9,0.1,7.8,0.3,14.7c0.4,13.9,0.5,16.1,0.9,20c0.4,4.5,1.5,5.9,4.9,5.9c2.3,0,3.1,0.7,3.1,2.4C224,192.2,223.1,193,221.4,193"
			/>
		<path class="st1" d="M290.5,130.9c-0.5,0.6-0.7,0.7-3.8,1.3c-3.4,0.7-4,2.3-4,10.4v8.9c0,7,0,11.6,0.1,13.7
			c0.1,2.7,0.1,4.8,0.1,6.5c0,9.4-2.3,14.9-7.9,18.8c-4.3,2.9-9.1,4.1-16.4,4.1c-17.4,0-26-6.8-26.5-20.9v-7.8V142l-0.1-3.6
			c-0.1-4.5-0.8-5.8-3.3-6.3c-0.9-0.2-1.4-0.4-1.7-0.4c-1.2-0.4-1.8-1.1-1.8-2.3c0-1.4,0.8-2.1,2.3-2.1c0.4,0,1.1,0.1,2.2,0.2
			c0.4,0,1.2,0,2.4,0.1l3.4,0.1c1.4,0.1,2.7,0.1,4,0.1c1.2,0,2.5,0,4.6-0.1l3.5-0.1c1-0.1,1.8-0.1,2.6-0.1c1.2-0.1,2.1-0.2,2.4-0.2
			c2,0,3.2,0.8,3.2,2.1c0,1.6-0.8,2.1-4.3,2.7s-4.1,1.9-4.1,9.8v20c0,14.1,0.3,17.8,2.4,21.7c1.9,3.9,6.6,6.3,12.2,6.3
			c4.5,0,8.3-1.3,11.3-3.6c3.7-2.9,4.8-6.6,4.8-15.9l0.1-9.9l-0.2-13.1l-0.3-8.6c-0.3-5.1-1.2-6.3-5.7-6.7c-2.6-0.3-3.7-1-3.7-2.5
			c0-1.6,1.1-2.3,3.2-2.3c0.5,0,1.2,0.1,1.8,0.1c3.4,0.3,6.3,0.4,8.3,0.4c1.6,0,3.2,0,4.5-0.2c1.6-0.2,2.4-0.3,2.7-0.3
			c1.3,0,2.2,0.8,2.2,2.1C291,130,290.8,130.6,290.5,130.9"/>
		<path class="st1" d="M344.6,179.6c-0.2,1-0.4,2.2-0.5,3.5c-0.4,2.7-0.7,4.6-0.7,5.5c-0.2,3.3-0.7,4.3-2.1,4.3c-0.5,0-1.6,0-3-0.1
			c-1.1-0.1-3.9-0.2-8.2-0.3l-6.9-0.2l-7.1,0.1h-4.7c-2.1,0.1-4.2,0.1-6.3,0.1c-3,0-3.6,0.1-6.4,0.3c-1.1,0.1-1.8,0.1-2.4,0.1
			c-1.9,0-3-0.8-3-2.2c0-1.6,0.7-2.1,4.2-2.6c3.3-0.7,3.8-2,3.8-9.9v-36.3c0-7.9-0.5-9.2-3.8-9.8c-3.5-0.7-4.2-1.2-4.2-2.7
			c0-1.4,1.1-2.1,3-2.1c0.3,0,1.1,0.1,2.4,0.2c1.5,0.1,4.1,0.2,7.2,0.2c2.4,0.1,4.1,0.1,5.9,0.1c8.6,0,21-0.4,25.8-0.8
			c1-0.1,1.7-0.2,2-0.2c1.2,0,1.7,0.6,1.7,2c0,0.5,0,1.2-0.1,2v2.9c0,1.8,0,3.3,0.1,4.7c0.1,0.6,0.1,1.2,0.1,1.7
			c0,1.8-0.4,2.5-1.7,2.5c-1.2,0-1.8-0.5-2.9-2.4c-1.4-2.7-3.7-5.6-5.1-6.6c-1.2-0.9-3.5-1.5-5.5-1.5c-3,0-6.5,0.2-7.8,0.6
			c-1.3,0.3-1.7,0.9-1.7,3.1l-0.1,3.3v12.3c0,2.1,0.2,3.1,0.5,3.4c0.4,0.4,0.5,0.4,3.4,0.4c2.4,0,3.7-0.1,5.2-0.3
			c1.1-0.1,2-0.4,2.6-0.9c1.1-0.8,1.5-1.6,3.4-6.3c0.6-1.4,1.1-1.9,2.1-1.9c1.1,0,2,1,2,2.4c0,0.4-0.1,1.1-0.2,2.3
			c-0.1,0.7-0.1,1.8-0.2,3.3c-0.2,2.7-0.2,3.6-0.2,4.8c0,0.9,0,1.8,0.1,2.4l0.3,4.3c0.1,0.8,0.1,1.5,0.1,2c0,1.7-0.7,2.4-1.9,2.4
			c-1.4,0-1.9-0.7-3.1-3.8c-1.7-4.6-3.9-6.4-8.4-6.4c-5.4,0-5.9,0.4-5.9,4.3v10.6c0,6.9,0.5,9.5,2.2,11.5c1.3,1.6,3.5,2.4,6.7,2.4
			c6,0,10.3-2.7,13.1-8l1.8-3.5c0.7-1.3,1.4-1.8,2.5-1.8c1.2,0,1.9,0.9,1.9,2.2C344.8,177.9,344.7,178.9,344.6,179.6"/>
		<path class="st1" d="M407.8,199.5c-1.6,2-2,2.4-6.7,2.4l-6.8-1.2l-9.6-3c0,0-1-0.8-12.5-3.3c-3.6-0.8-8-1-8-1l-3.8,0.1
			c-1.2,0.1-2.9,0.1-5,0.2c-1.4,0.1-2.6,0.1-3.2,0.2c-1.6,0.1-2.7,0.1-3.1,0.1c-2.3,0-3.6-1-3.6-2.7c0-2,0.9-2.6,5.2-3.3
			c3.5-0.7,4.6-2.5,4.6-8l0.1-4.4v-42.2c0-10-0.7-11.6-4.8-12.3c-4.3-0.9-5.2-1.5-5.2-3.4c0-1.7,1.3-2.7,3.8-2.7
			c0.4,0,1.4,0.1,3,0.2c1.2,0,2.3,0.1,3.2,0.1l5,0.1l5.9,0.1l1.6-0.1l3.6-0.1l3.5-0.1l2.9-0.2h0.6c2.9,0,4.4,1,4.4,2.7
			c0,2-1.1,2.6-6.2,3.4c-5,0.7-5.8,2.3-5.8,12.3v37.1c0,7.2,0.6,12,1.5,14c1.2,2.2,9.3,2.7,13.2,3.7c6.3,1.6,10.1,1.1,12.3,0.1
			s3.1-3.5,4.5-6.7l2.3-4.9c0.8-1.4,1.8-2.1,3.2-2.1C411.6,174.8,409.4,197.5,407.8,199.5"/>
		<path class="st1" d="M344.7,281.4c-10.2-3.3-20.9-8.5-25.5-12.6c-2-1.7-2.4-2.8-2.4-6.7v-1.3c0.1-2.8,0.1-5,0.1-6.5v-0.8
			c0-4,0.7-5.3,3.1-4.7c1.6,0.4,2.8,1.6,3.5,3.3l2,5.8c2.9,8.2,9.5,14.4,18.4,17.1c10.3,3.1,17.6-0.1,17.3-7.6
			c-0.2-6.9-4.8-11.9-19.4-20.9c-5.5-3.2-10-6.5-13.7-9.3c-6.1-4.9-9.7-11.3-9.7-18c0-13.2,14.3-22.1,32.2-20
			c4.2,0.5,9.2,1.6,13.3,3.1c4.6,1.6,6.3,3.6,6.4,7.1l0.5,13.5c0.1,2.1-0.7,3.1-2.5,2.8c-0.7-0.1-1.2-0.5-1.8-0.8
			c-1.2-1-1.6-1.7-3.3-6.6c-2.9-7.9-7.6-12.2-14-13c-8-1-13.9,2.6-13.8,8.4c0,1.6,0.4,3.2,1.2,4.5c2,3.7,5.5,6,20.2,15.2
			c12.6,7.7,20.7,15.2,21.2,28.1C379,280,365.7,288,344.7,281.4"/>
		<path class="st1" d="M69,146.5c-15.4-6-17.7-7.3-19.6-11.3c-0.7-1.4-1.1-3.1-1.1-5c0-6.6,5.6-11.6,13.2-12V118c0.2,0,0.3,0,0.5,0
			c8.7,0,15,5,17.8,14l1.9,6.4c0.6,1.8,1.8,2.8,3.4,2.8c2.3,0,3.1-1.8,3.1-6.8v-0.9c0-1.9,0-4.6,0.1-8.1v-1.6c0-4.8-0.4-6-2.3-7.3
			c-4.4-3.2-14.8-5.2-24.6-5.2c-0.8,0-2.4,0.2-2.4,0.2c-15.9,2.2-27.9,14.2-27.9,28.9c0,8.3,3.5,15.2,9.6,19.5
			c3.7,2.4,8.2,5,13.5,7.3c14.3,6.2,18.7,10.6,18.7,18.2c0,8.3-7.2,14.2-17.2,14.2c-8.7,0-15-5-17.8-14l-1.9-6.4
			c-0.6-1.8-1.8-2.8-3.4-2.8c-2.3,0-3,1.8-3,6.8v1c0,1.9,0,4.6-0.1,8.1v1.6c0,4.7,0.4,5.9,2.3,7.3c4.4,3.2,14.8,5.4,24.6,5.4
			c20.2,0,33.5-12.9,33.5-32.4C89.7,160.6,83.3,152.1,69,146.5"/>
		<path class="st1" d="M240.9,260.4c0,0-4.4,0-12.6-0.3c-7.7-0.2-13.7,0.1-14,0.1c-1.5,0-2.4-0.7-2.4-2c0-0.9,0.4-1.6,1.2-2
			c0.5-0.2,0.8-0.3,2.5-0.6c2.3-0.4,3.2-1.4,3.2-2.5c0-0.5-0.2-1.2-0.6-2.3l-0.5-2.4l-2.3-5.6c-0.2-0.8-0.5-1.3-0.7-1.6
			c-0.3-0.3-0.6-0.6-1-0.6h-1.2h-13.7c-2,0-2.4,0.4-3,2.4l-0.9,3.2c-0.7,2.5-1.2,5.1-1.2,6.4c0,2.8,1.6,3.1,5.4,3.6
			c2.9,0.4,3.7,0.8,3.7,2.4c0,1.5-1,2.2-3,2.2c-0.4,0-1.4-0.1-2.2-0.1c-3.8-0.4-4.4,0.3-6.6,0.3c-2.1,0-3.5,0.2-7,0.6
			c-0.9,0.1-1.7,0.1-2.4,0.1c-1.7,0-2.6-0.8-2.6-2.2c0-1.3,0.8-2,2.7-2.3c1.8-0.3,2.7-0.6,3.4-1.4c1.2-1.1,2.2-1.9,4.7-8.5l4.4-11.5
			l6.8-18.2l1.5-3.3c2-4.4-1.9-4-1.4-5.6c0.5-1.4,3.6-2.4,6.5-4.9s5.6-6.6,6.9-6.6c1.8,0-0.3,2.5,2.2,8.2c1.3,3.1,1.3,3.1,3.5,8.5
			l6.5,16.5l5.1,13.2l3,6.2c2.3,5.5,3.1,6.3,6,6.3c2.2,0,3,0.3,3,1.9C243.7,259.9,243.1,260.4,240.9,260.4 M212.3,234.6
			c-0.2-0.6-0.3-1-0.4-1.1l-5.7-14.4c-0.3-0.7-0.7-1.3-0.9-1.3c-0.3,0-0.7,0.9-1.3,2.3c-0.3,0.9-0.9,2.5-1.8,4.7
			c-1,2.7-1.8,4.7-2.2,6.1c-0.5,1.3-0.9,2.1-1,2.5c-0.2,0.6-0.3,1-0.3,1.5c0,0.8,0.5,1.1,1.9,1.1h10.2c1.5,0,1.8-0.1,1.8-0.7
			C212.5,235.1,212.4,234.9,212.3,234.6"/>
	</g>
</g>
<g>
	<polygon class="st2" points="216.4,301.9 204.1,341.7 164.6,341.8 195.3,365.7 184,404 216.4,380 249.5,404.4 237.6,365.5 
		268.5,341.7 229.8,341.7 	"/>
	<g>
		<polygon class="st3" points="216.5,357.8 216.4,301.5 229.8,341.7 		"/>
	</g>
	<g>
		<polygon class="st3" points="216.5,357.8 249.3,404.2 216.4,380 		"/>
	</g>
	<g>
		<polygon class="st4" points="216.5,357.8 183.5,404.2 216.4,380 		"/>
	</g>
	<g>
		<polygon class="st3" points="216.5,357.8 164.6,341.8 203.9,341.2 		"/>
	</g>
	<g>
		<polygon class="st3" points="216.4,357.9 268.5,341.9 237.7,365.9 		"/>
	</g>
	<g>
		<polygon class="st4" points="216.6,357.9 164.5,341.9 195.3,365.9 		"/>
	</g>
	<path class="st0" d="M207.4,346.5H225c0,0-0.4,1.3-0.1,2.5c0,0,1,3.3,1,6.3c0,0,0.1,4.3-1.3,8.1l-2,5.6c0,0-0.7,2.3-0.3,5.2
		c0,0,0.7,3.1,0.6,4.4c0,0-0.1,1.6-0.7,3c0,0-0.3,0.7,0.3,1.5l0.9,1.2c0,0,0.3,0.7-0.1,1h-13.7c0,0-0.5-0.5-0.1-1.1l0.8-1.2
		c0,0,0.7-0.7,0.1-1.9c0,0-0.7-1.6-0.6-2.8c0,0,0.2-2.6,0.6-4c0,0,0.4-2.9-0.3-5.1c0,0-1.8-4.8-2.1-5.8c0,0-1.6-4.1-1.2-8.5
		c0,0,0.2-3.4,0.9-5.2C207.5,349.8,208,347.1,207.4,346.5z"/>
</g>
</svg>
